<svg id="Layer_1" data-name="Layer 1" xmlns="http://www.w3.org/2000/svg" xmlns:xlink="http://www.w3.org/1999/xlink" viewBox="0 0 77.5 23.28"><defs><style>.cls-1,.cls-2,.cls-3,.cls-9{fill:none;}.cls-2{clip-rule:evenodd;}.cls-3{fill-rule:evenodd;}.cls-10,.cls-4{isolation:isolate;}.cls-5{clip-path:url(#clip-path);}.cls-6{clip-path:url(#clip-path-2);}.cls-7{clip-path:url(#clip-path-5);}.cls-8{clip-path:url(#clip-path-6);}.cls-9{stroke:#979797;stroke-miterlimit:10;stroke-width:0.37px;}.cls-10{opacity:0.77;mix-blend-mode:overlay;}.cls-11{clip-path:url(#clip-path-15);}.cls-12,.cls-17{opacity:0.5;}.cls-13{clip-path:url(#clip-path-19);}.cls-14{fill:#2142f7;opacity:0.63;mix-blend-mode:hard-light;}.cls-15,.cls-16,.cls-17{fill:#fff;}.cls-16{opacity:0.75;}</style><clipPath id="clip-path"><rect class="cls-1" x="-305.52" y="-62.89" width="265.92" height="108.03"/></clipPath><clipPath id="clip-path-2"><rect class="cls-1" x="-305.52" y="-62.89" width="265.92" height="145.33"/></clipPath><clipPath id="clip-path-5"><path class="cls-2" d="M-349.84-63h-0.09V203.85H4.8V-63H-349.84Zm0,0.18H4.71l-0.09-.09V203.76l0.09-.09H-349.84l0.09,0.09V-62.89Zm-3.79-3.88H8.5V207.55H-353.63V-66.68Z"/></clipPath><clipPath id="clip-path-6"><rect class="cls-1" x="-349.84" y="-62.89" width="354.56" height="266.66"/></clipPath><clipPath id="clip-path-15"><path class="cls-2" d="M-358.54-47.63L-59.69,157.85c33.9,23.29,79.54-9.59,62.86-45.29L-177.11-273.08c-14.32-30.65-61.71-30.65-76.06,0"/></clipPath><clipPath id="clip-path-19"><rect class="cls-1" x="-318.03" y="-100.94" width="354.32" height="266.84"/></clipPath></defs><title>AngelLogo</title><g class="cls-4"><g class="cls-5"><g class="cls-6"><g class="cls-5"><g class="cls-4"><g class="cls-5"><g class="cls-8"><g class="cls-5"><rect class="cls-9" x="-349.84" y="-62.89" width="354.56" height="266.66"/></g></g><g class="cls-5"><g class="cls-10"><g class="cls-5"><g class="cls-5"><g class="cls-4"><g class="cls-5"><g class="cls-11"><g class="cls-5"><g class="cls-4"><g class="cls-5"><g class="cls-5"><rect class="cls-12" x="-359.46" y="-296.99" width="367.11" height="463.58"/></g></g></g></g></g></g></g></g></g></g></g><g class="cls-13"><g class="cls-5"><rect class="cls-14" x="-318.95" y="-101.86" width="356.16" height="268.69"/></g></g></g></g></g></g></g></g><path class="cls-15" d="M24.49,6.18a0.68,0.68,0,0,1,.71-0.51h1a0.67,0.67,0,0,1,.71.51l3.35,9.48a0.49,0.49,0,0,1-.51.72H29a0.67,0.67,0,0,1-.71-0.51l-0.75-2.23H23.8l-0.74,2.22a0.67,0.67,0,0,1-.71.53H21.66a0.49,0.49,0,0,1-.51-0.72ZM27.07,12l-1-2.87c-0.18-.6-0.42-1.66-0.42-1.66h0s-0.24,1.06-.42,1.66l-1,2.87h2.79Z"/><path class="cls-15" d="M31.42,9.32A0.56,0.56,0,0,1,32,8.68h0.59a0.56,0.56,0,0,1,.62.63V9.79a2.45,2.45,0,0,1,0,.35h0A3,3,0,0,1,36,8.5c1.71,0,2.69.89,2.69,2.93v4.32a0.56,0.56,0,0,1-.63.63H37.38a0.57,0.57,0,0,1-.63-0.63V11.82c0-.94-0.24-1.57-1.21-1.57a2.3,2.3,0,0,0-2.22,2.52v3a0.56,0.56,0,0,1-.62.63H32a0.56,0.56,0,0,1-.62-0.63V9.32Z"/><path class="cls-15" d="M41.89,17.63a4.18,4.18,0,0,0,1.55.29c1.18,0,2.17-.5,2.17-1.87V15.47a3.38,3.38,0,0,1,0-.39h0a2.25,2.25,0,0,1-2.11,1.15c-2.25,0-3.49-1.78-3.49-3.91S41.2,8.5,43.49,8.5a2.31,2.31,0,0,1,2.28,1.18h0a1.14,1.14,0,0,1,0-.2V9.2a0.53,0.53,0,0,1,.62-0.51h0.51a0.56,0.56,0,0,1,.62.63v6.59c0,2.64-2.08,3.64-4,3.64a6.18,6.18,0,0,1-2.25-.41A0.54,0.54,0,0,1,41,18.33L41.09,18A0.55,0.55,0,0,1,41.89,17.63Zm3.77-5.27c0-1.77-.87-2.23-1.87-2.23A1.83,1.83,0,0,0,42,12.25c0,1.39.69,2.37,1.93,2.37C44.79,14.61,45.67,14.09,45.67,12.37Z"/><path class="cls-15" d="M52.88,8.5c2.19,0,3.41,1.55,3.41,3.67a0.67,0.67,0,0,1-.66.65H50.93a2.21,2.21,0,0,0,2.31,2.11,3.18,3.18,0,0,0,1.66-.5,0.56,0.56,0,0,1,.84.21l0.18,0.3a0.57,0.57,0,0,1-.21.85,4.86,4.86,0,0,1-2.61.77,3.94,3.94,0,0,1-4.13-4A3.8,3.8,0,0,1,52.88,8.5Zm1.51,3.15A1.57,1.57,0,0,0,52.83,10,1.87,1.87,0,0,0,51,11.66h3.41Z"/><path class="cls-15" d="M57.66,6.3a0.56,0.56,0,0,1,.62-0.63h0.66a0.56,0.56,0,0,1,.62.63v7.53c0,0.75.32,0.89,0.6,0.92a0.49,0.49,0,0,1,.47.54v0.51a0.57,0.57,0,0,1-.63.65c-1,0-2.34-.27-2.34-2.48V6.3Z"/><path class="cls-15" d="M61.77,15.07a0.56,0.56,0,0,1,.63-0.62h0.66a0.56,0.56,0,0,1,.63.62v0.68a0.57,0.57,0,0,1-.63.63H62.4a0.56,0.56,0,0,1-.63-0.63V15.07Z"/><path class="cls-15" d="M69.39,11.63h0.32V11.45a1.26,1.26,0,0,0-1.43-1.36,3.48,3.48,0,0,0-1.6.44,0.57,0.57,0,0,1-.84-0.26L65.68,10a0.56,0.56,0,0,1,.24-0.85,5.46,5.46,0,0,1,2.52-.63,2.86,2.86,0,0,1,3.18,3.06v4.18a0.56,0.56,0,0,1-.63.63H70.48a0.56,0.56,0,0,1-.62-0.63v-0.3a1.5,1.5,0,0,1,0-.33h0a2.8,2.8,0,0,1-2.42,1.45,2.36,2.36,0,0,1-2.55-2.31C64.89,12,67.67,11.63,69.39,11.63ZM68,15.1a2,2,0,0,0,1.77-2V12.79H69.41c-1,0-2.61.15-2.61,1.3A1,1,0,0,0,68,15.1Z"/><path class="cls-15" d="M73.41,6.75V6.3A0.56,0.56,0,0,1,74,5.67h0.66a0.57,0.57,0,0,1,.63.63V6.75a0.56,0.56,0,0,1-.63.62H74A0.55,0.55,0,0,1,73.41,6.75Zm0,2.57A0.56,0.56,0,0,1,74,8.68h0.66a0.56,0.56,0,0,1,.62.63v6.43a0.56,0.56,0,0,1-.62.63H74a0.56,0.56,0,0,1-.62-0.63V9.32Z"/><path class="cls-16" d="M15,11.72L4.1,19.18c-1.24.85-2.9-.35-2.29-1.64l6.57-14a1.57,1.57,0,0,1,2.77,0"/><path class="cls-17" d="M4.54,11.72l10.9,7.45c1.24,0.85,2.9-.35,2.29-1.64l-6.57-14a1.57,1.57,0,0,0-2.77,0"/></svg>