<?xml version="1.0" encoding="UTF-8" standalone="no"?>
<svg width="71px" height="84px" viewBox="0 0 71 84" version="1.1" xmlns="http://www.w3.org/2000/svg" xmlns:xlink="http://www.w3.org/1999/xlink">
    <!-- Generator: Sketch 3.7.2 (28276) - http://www.bohemiancoding.com/sketch -->
    <title>Group 22</title>
    <desc>Created with Sketch.</desc>
    <defs>
        <linearGradient x1="-26.7328401%" y1="144.630155%" x2="149.142795%" y2="15.3356481%" id="linearGradient-1">
            <stop stop-color="#6E7BDA" offset="0%"></stop>
            <stop stop-color="#79CCF3" offset="100%"></stop>
        </linearGradient>
        <linearGradient x1="-186.611419%" y1="136.951994%" x2="25.1398627%" y2="-104.871442%" id="linearGradient-2">
            <stop stop-color="#9ED4F5" offset="0%"></stop>
            <stop stop-color="#9ABAEC" offset="100%"></stop>
        </linearGradient>
    </defs>
    <g id="Page-2" stroke="none" stroke-width="1" fill="none" fill-rule="evenodd">
        <g id="Desktop-HD-Copy-14" transform="translate(-685.000000, -1965.000000)">
            <g id="Group-22" transform="translate(685.000000, 1965.000000)">
                <g id="Group-21" transform="translate(9.000000, 8.000000)" stroke="url(#linearGradient-1)" stroke-width="2" stroke-linecap="square" opacity="0.484958022">
                    <path d="M0,51 L27,68" id="Line"></path>
                    <path d="M0,51 L54,18" id="Line"></path>
                    <path d="M0,18 L54,51" id="Line"></path>
                    <path d="M0,18 L27,0" id="Line"></path>
                    <path d="M54,18 L27,0" id="Line"></path>
                    <path d="M54,51 L27,68" id="Line"></path>
                </g>
                <g id="Group-20" transform="translate(0.839623, 0.500000)" fill="url(#linearGradient-2)">
                    <ellipse id="Oval-37-Copy-4" cx="34.9827728" cy="74.5923374" rx="8.03937654" ry="8.02629968"></ellipse>
                    <path d="M8.03937654,33.4865616 C12.4794016,33.4865616 16.0787531,29.8930649 16.0787531,25.4602619 C16.0787531,21.027459 12.4794016,17.4339623 8.03937654,17.4339623 C3.59935148,17.4339623 0,21.027459 0,25.4602619 C0,29.8930649 3.59935148,33.4865616 8.03937654,33.4865616 Z" id="Oval-37-Copy"></path>
                    <ellipse id="Oval-37-Copy-5" cx="34.9827728" cy="41.3093186" rx="8.03937654" ry="8.02629968"></ellipse>
                    <ellipse id="Oval-37-Copy-2" cx="8.03937654" cy="58.7432808" rx="8.03937654" ry="8.02629968"></ellipse>
                    <ellipse id="Oval-37-Copy-6" cx="61.926169" cy="58.7432808" rx="8.03937654" ry="8.02629968"></ellipse>
                    <ellipse id="Oval-37" cx="34.9827728" cy="8.02629968" rx="8.03937654" ry="8.02629968"></ellipse>
                    <path d="M61.926169,33.4865616 C66.3661941,33.4865616 69.9655455,29.8930649 69.9655455,25.4602619 C69.9655455,21.027459 66.3661941,17.4339623 61.926169,17.4339623 C57.4861439,17.4339623 53.8867925,21.027459 53.8867925,25.4602619 C53.8867925,29.8930649 57.4861439,33.4865616 61.926169,33.4865616 Z" id="Oval-37-Copy-3"></path>
                </g>
            </g>
        </g>
    </g>
</svg>