<?xml version="1.0" encoding="UTF-8" standalone="no"?>
<svg width="64px" height="64px" viewBox="0 0 64 64" version="1.1" xmlns="http://www.w3.org/2000/svg" xmlns:xlink="http://www.w3.org/1999/xlink">
    <!-- Generator: Sketch 3.7.2 (28276) - http://www.bohemiancoding.com/sketch -->
    <title>Group 5</title>
    <desc>Created with Sketch.</desc>
    <defs>
        <linearGradient x1="-26.7328401%" y1="144.630155%" x2="149.142795%" y2="15.3356481%" id="linearGradient-1">
            <stop stop-color="#6E7BDA" offset="0%"></stop>
            <stop stop-color="#79CCF3" offset="100%"></stop>
        </linearGradient>
    </defs>
    <g id="Page-2" stroke="none" stroke-width="1" fill="none" fill-rule="evenodd">
        <g id="Desktop-HD-Copy-14" transform="translate(-372.000000, -1976.000000)">
            <g id="Group-5" transform="translate(374.000000, 1978.000000)">
                <path d="M0.715066368,56.7474495 C0.320146118,57.1392722 0.314298313,57.7687403 0.713993373,58.1653003 L1.84920402,59.2916069 C2.24353167,59.6828416 2.87980302,59.6858777 3.27826376,59.2905423 L20.8041349,41.9021376 L22.0857336,40.6305912 L19.5225362,38.0874984 L18.2409375,39.3590448 L0.715066368,56.7474495 Z M37.7927242,44.8264802 C50.0574639,44.8264802 60,34.7917308 60,22.4132401 C60,10.0347494 50.0574639,0 37.7927242,0 C25.5279844,0 15.5854483,10.0347494 15.5854483,22.4132401 C15.5854483,34.7917308 25.5279844,44.8264802 37.7927242,44.8264802 Z" id="Combined-Shape" stroke="url(#linearGradient-1)" stroke-width="3.6" stroke-linecap="square" fill-opacity="0.180000007" fill="url(#linearGradient-1)" opacity="0.73489972"></path>
                <g id="Group-18" transform="translate(16.000000, 0.000000)">
                    <g id="Group-7"></g>
                </g>
            </g>
        </g>
    </g>
</svg>